<?xml version="1.0" encoding="UTF-8"?>
<svg id="icon" xmlns="http://www.w3.org/2000/svg"
     viewBox="461 257 417 244"
     preserveAspectRatio="xMidYMid meet">
<g id="art">
<path d="M0 0 C0 0.66 0 1.32 0 2 C0.57234375 2.24363281 1.1446875 2.48726563 1.734375 2.73828125 C4.40433538 4.22517298 6.13829007 5.98083908 8.25 8.1875 C11.6433943 11.72331778 15.20373014 14.95360194 18.90332031 18.15942383 C22.26233991 21.10814865 25.50242911 24.17969387 28.75 27.25 C34.48814337 32.65236904 40.25935409 38.01259914 46.078125 43.328125 C49.20643985 46.18877655 52.3236772 49.0610975 55.4375 51.9375 C56.24803833 52.68616333 56.24803833 52.68616333 57.07495117 53.44995117 C58.16964892 54.46120612 59.26429396 55.47251812 60.35888672 56.48388672 C62.53090442 58.49046659 64.70376073 60.49613692 66.87670898 62.50170898 C67.96093108 63.50244158 69.04507794 64.50325569 70.12915039 65.50415039 C72.81148255 67.98061326 75.49465476 70.45615272 78.1796875 72.9296875 C84.03628688 78.32715675 89.8720094 83.74574245 95.6875 89.1875 C99.73739511 92.97634182 103.79986984 96.74417912 107.9375 100.4375 C112.49422143 104.52389993 117.00821442 108.65494982 121.5 112.8125 C122.20761475 113.45952881 122.91522949 114.10655762 123.64428711 114.77319336 C124.30823486 115.39073486 124.97218262 116.00827637 125.65625 116.64453125 C126.55053711 117.46981323 126.55053711 117.46981323 127.46289062 118.31176758 C129.08835131 120.0970377 130.02814264 121.80042283 131 124 C123.54141376 130.99373247 116.08053775 137.97859064 108.45703125 144.79296875 C105.61941848 147.34185781 102.80823505 149.91887225 100 152.5 C96.35077534 155.85298191 92.68830344 159.18998409 89 162.5 C83.29338306 167.62319284 77.64684646 172.81119939 72 178 C65.54632094 183.93018671 59.07667264 189.84011178 52.5546875 195.6953125 C48.18891306 199.63385519 43.86205811 203.61482661 39.53222656 207.59277344 C36.52688392 210.35293835 33.51802198 213.10926713 30.50927734 215.86572266 C27.95677297 218.20461437 25.40631434 220.54567341 22.859375 222.890625 C12.76857815 232.17491421 12.76857815 232.17491421 7.7421875 236.4921875 C6.58211876 237.49619318 5.44103451 238.52256774 4.3203125 239.5703125 C2.75 241 2.75 241 0 243 C-4.06008651 242.79800565 -6.14992456 240.23745849 -8.9140625 237.484375 C-9.83960938 236.56269531 -10.76515625 235.64101563 -11.71875 234.69140625 C-12.19570313 234.20816895 -12.67265625 233.72493164 -13.1640625 233.22705078 C-14.61665885 231.75843315 -16.08450128 230.30645294 -17.5546875 228.85546875 C-18.47765625 227.92863281 -19.400625 227.00179687 -20.3515625 226.046875 C-21.61734131 224.77602051 -21.61734131 224.77602051 -22.90869141 223.47949219 C-24.97429028 221.03048189 -26.01711461 219.02644819 -27 216 C-26.42894531 215.48953125 -25.85789062 214.9790625 -25.26953125 214.453125 C-19.22763825 209.03559296 -13.2501484 203.55322925 -7.29296875 198.04296875 C-2.7073279 193.80209267 1.90044917 189.58545151 6.50732422 185.36767578 C8.02814876 183.97420848 9.54747324 182.57912249 11.06640625 181.18359375 C15.67073948 176.95476524 20.28276595 172.73596914 24.9375 168.5625 C29.39286804 164.56482627 33.79083519 160.50799115 38.18334961 156.44165039 C42.22180154 152.70722542 46.30133653 149.02160409 50.3984375 145.3515625 C53.49709307 142.55067564 56.56149002 139.71420082 59.625 136.875 C64.34651301 132.50054545 69.11450466 128.19178452 74 124 C72.58460657 120.7760483 70.88585072 118.64333208 68.375 116.1875 C67.74335937 115.56230469 67.11171875 114.93710937 66.4609375 114.29296875 C64.41955388 112.39091767 62.34845246 110.55142752 60.2421875 108.72265625 C55.97280951 105.00642216 51.85484757 101.1461667 47.75 97.25 C41.90858281 91.72779286 36.02860453 86.25723184 30.08984375 80.83984375 C26.36197901 77.42662898 22.68288343 73.96159058 19 70.5 C13.41540349 65.25127961 7.79325032 60.04969715 2.1328125 54.8828125 C-1.65149115 51.41407293 -5.38560908 47.89199465 -9.125 44.375 C-15.01450265 38.83682797 -20.95164777 33.36500474 -27 28 C-25.68151159 25.10784459 -24.23598182 22.95380025 -22.05859375 20.64453125 C-21.47883789 20.02586182 -20.89908203 19.40719238 -20.30175781 18.76977539 C-19.3789502 17.80092407 -19.3789502 17.80092407 -18.4375 16.8125 C-17.49729004 15.81754517 -17.49729004 15.81754517 -16.53808594 14.80249023 C-14.69850529 12.86204917 -12.85097137 10.92957215 -11 9 C-10.50322754 8.47986328 -10.00645508 7.95972656 -9.49462891 7.42382812 C-2.37712379 0 -2.37712379 0 0 0 Z " fill="#060505" transform="translate(747,257)"/>
<path d="M0 0 C7.72957057 6.60234153 15.36226872 13.26541913 22.75 20.25 C28.44106904 25.60874384 34.16903448 30.92029879 39.94140625 36.19140625 C43.48462825 39.43556302 46.99166685 42.71821075 50.5 46 C54.97934971 50.18981214 59.47263845 54.36208891 64 58.5 C68.52736236 62.63791184 73.02059512 66.81024595 77.5 71 C82.98538174 76.12996344 88.50021973 81.2251005 94.04296875 86.29296875 C97.18333192 89.16490689 100.31133469 92.05012279 103.4375 94.9375 C103.97560303 95.43435303 104.51370605 95.93120605 105.06811523 96.44311523 C107.83334772 98.99693977 110.59706314 101.55239178 113.359375 104.109375 C113.91157715 104.62008545 114.4637793 105.1307959 115.03271484 105.65698242 C116.12472127 106.66698364 117.21620401 107.6775514 118.30712891 108.6887207 C120.86001316 111.04929656 123.42682806 113.38874154 126.0390625 115.68359375 C126.95429687 116.48925781 127.86953125 117.29492188 128.8125 118.125 C130.02873047 119.18074219 130.02873047 119.18074219 131.26953125 120.2578125 C133 122 133 122 133 124 C131.70703125 125.3046875 131.70703125 125.3046875 129.8125 126.875 C126.03987812 130.08206128 122.3784518 133.38241377 118.75 136.75 C117.62115776 137.79564202 116.49225096 138.84121436 115.36328125 139.88671875 C114.80205566 140.40669434 114.24083008 140.92666992 113.66259766 141.46240234 C109.6200454 145.20102116 105.55394696 148.91407034 101.49267578 152.63232422 C99.97185124 154.02579152 98.45252676 155.42087751 96.93359375 156.81640625 C92.32926052 161.04523476 87.71723405 165.26403086 83.0625 169.4375 C79.17629402 172.92448097 75.33157193 176.45331985 71.5 180 C66.87647389 184.27974955 62.21907665 188.51758608 57.52734375 192.72265625 C54.66917797 195.29809775 51.83289739 197.89685764 49 200.5 C44.54667383 204.59169207 40.06340112 208.64822977 35.5625 212.6875 C32.69399555 215.27615036 29.84527019 217.88589108 27 220.5 C21.69876807 225.36944212 16.35795077 230.1931043 11 235 C9.12474385 236.68721535 7.24973813 238.37470907 5.375 240.0625 C3.91666667 241.375 2.45833333 242.6875 1 244 C-4.93135195 239.05183411 -10.49345955 233.78990362 -16 228.375 C-16.88300781 227.529375 -17.76601563 226.68375 -18.67578125 225.8125 C-19.91908203 224.58660156 -19.91908203 224.58660156 -21.1875 223.3359375 C-21.94417969 222.59907715 -22.70085938 221.8622168 -23.48046875 221.10302734 C-25 219 -25 219 -24.90014648 216.89770508 C-23.38345713 213.70019319 -20.67629523 211.6117874 -18.0625 209.3125 C-17.47130371 208.77995605 -16.88010742 208.24741211 -16.27099609 207.69873047 C-14.5208597 206.1246013 -12.76151226 204.56137558 -11 203 C-9.37398788 201.54279525 -7.74888262 200.08457746 -6.125 198.625 C-5.33351563 197.91601562 -4.54203125 197.20703125 -3.7265625 196.4765625 C-0.28586991 193.35134889 3.10732338 190.17716168 6.5 187 C11.44476361 182.36934545 16.42507502 177.78788977 21.4765625 173.2734375 C24.50878121 170.54162436 27.50536647 167.77287299 30.5 165 C34.30979998 161.47298019 38.1333759 157.96489692 42 154.5 C45.79976343 151.09310387 49.56440513 147.65095758 53.3125 144.1875 C53.85310059 143.68814941 54.39370117 143.18879883 54.95068359 142.67431641 C57.84312689 140.00036395 60.730382 137.32095792 63.61328125 134.63671875 C64.20133545 134.09055908 64.78938965 133.54439941 65.39526367 132.98168945 C66.52338018 131.93382287 67.64992299 130.88425876 68.7746582 129.83276367 C71.10542033 127.66987827 73.34682872 125.76878086 76 124 C74.62140072 120.80636047 73.11891172 119.00638231 70.4375 116.8125 C67.3054041 114.16749316 64.37403913 111.42384916 61.5 108.5 C58.09629724 105.04951094 54.57561011 101.83362606 50.8984375 98.6796875 C48.44294301 96.50713065 46.16871563 94.18156397 43.87353516 91.84228516 C42.07078162 90.069601 40.21409998 88.4130402 38.296875 86.765625 C34.00773495 83.03628081 29.87189898 79.16232705 25.75 75.25 C19.88579381 69.7065622 13.98487201 64.2122257 8.0234375 58.7734375 C3.84788407 54.95491202 -0.27597264 51.08086307 -4.40771484 47.21508789 C-9.44206396 42.50929218 -14.51565706 37.84843817 -19.609375 33.20703125 C-20.39828125 32.47871094 -21.1871875 31.75039063 -22 31 C-22.93585937 30.23236328 -22.93585937 30.23236328 -23.890625 29.44921875 C-25 28 -25 28 -24.90356445 26.26196289 C-23.57775015 22.94294924 -21.17192839 20.80390735 -18.65234375 18.359375 C-17.85540855 17.56880707 -17.85540855 17.56880707 -17.04237366 16.76226807 C-15.34767175 15.08432813 -13.64282783 13.41713272 -11.9375 11.75 C-10.78512255 10.61267255 -9.63342148 9.47465934 -8.48242188 8.3359375 C-5.66272816 5.54928008 -2.83389412 2.77221208 0 0 Z " fill="#050505" transform="translate(616,257)"/>
<path d="M0 0 C2.91323815 1.32409078 5.05246245 2.77808924 7.36328125 4.984375 C7.99524414 5.58282227 8.62720703 6.18126953 9.27832031 6.79785156 C10.28523926 7.76416504 10.28523926 7.76416504 11.3125 8.75 C12.75110226 10.11479399 14.18990915 11.47937232 15.62890625 12.84375 C16.3573877 13.53726562 17.08586914 14.23078125 17.83642578 14.9453125 C21.12283635 18.06632709 24.4349531 21.15946102 27.75 24.25 C28.37173096 24.83040039 28.99346191 25.41080078 29.6340332 26.00878906 C34.36490096 30.42068684 39.13132089 34.79206748 43.90625 39.15625 C47.45977503 42.41364794 50.97942534 45.70707554 54.5 49 C59.98538174 54.12996344 65.50021973 59.2251005 71.04296875 64.29296875 C75.83137494 68.67208212 80.59297075 73.08033323 85.35888672 77.48388672 C88.07177586 79.99014104 90.78594859 82.49500446 93.5 85 C94.58333957 85.99999324 95.66667291 86.99999324 96.75 88 C97.28625 88.495 97.8225 88.99 98.375 89.5 C103.25 94 103.25 94 104.87646484 95.50146484 C105.95476548 96.49674444 107.0332149 97.49186288 108.11181641 98.48681641 C110.89842092 101.05770555 113.68201973 103.63173982 116.4609375 106.2109375 C121.88891759 111.24411342 127.32248864 116.24673467 133 121 C132.42008587 124.36937448 131.39650321 125.96552427 128.9375 128.3125 C128.29683594 128.92609375 127.65617188 129.5396875 126.99609375 130.171875 C124.53426204 132.4265467 122.02075854 134.61367503 119.4921875 136.79296875 C116.14408974 139.75797695 112.88722462 142.81610858 109.625 145.875 C104.63917106 150.54822053 99.61898222 155.17273682 94.5234375 159.7265625 C91.49121846 162.45837593 88.49464973 165.22714409 85.5 168 C80.87654917 172.27982958 76.21907506 176.51758751 71.52734375 180.72265625 C68.66917797 183.29809775 65.83289739 185.89685764 63 188.5 C59.35072829 191.85293117 55.68830402 195.18998357 52 198.5 C46.29338306 203.62319284 40.64684646 208.81119939 35 214 C21.75776553 226.16808617 21.75776553 226.16808617 15.453125 231.78125 C13.70947167 233.35831225 11.993287 234.96597895 10.296875 236.59375 C9.41515625 237.4290625 8.5334375 238.264375 7.625 239.125 C6.83351563 239.89070312 6.04203125 240.65640625 5.2265625 241.4453125 C3 243 3 243 1.21337891 242.93139648 C-2.05578644 241.5557219 -4.21127277 239.15628221 -6.640625 236.65234375 C-7.16767029 236.12105362 -7.69471558 235.58976349 -8.23773193 235.04237366 C-9.91567187 233.34767175 -11.58286728 231.64282783 -13.25 229.9375 C-14.38732745 228.78512255 -15.52534066 227.63342148 -16.6640625 226.48242188 C-19.45071992 223.66272816 -22.22778792 220.83389412 -25 218 C-19.59635085 211.4552007 -19.59635085 211.4552007 -16.625 209 C-12.51004663 205.49293747 -8.56609377 201.82436291 -4.625 198.125 C-0.45024581 194.21097623 3.73126094 190.31188404 8 186.5 C12.22400134 182.7265588 16.36633784 178.87166228 20.5 175 C25.44740894 170.36679019 30.43103885 165.78350831 35.484375 161.265625 C39.03268798 158.0699394 42.53577726 154.82624735 46.04125977 151.58374023 C50.68077368 147.29237686 55.33406655 143.01653428 60 138.75390625 C62.11699807 136.81682502 64.21818962 134.86392476 66.3125 132.90234375 C66.85640381 132.39582275 67.40030762 131.88930176 67.96069336 131.36743164 C69.00416931 130.3952066 70.04423314 129.41930231 71.08032227 128.43920898 C73.39886591 126.28607679 74.95427054 125.01524315 78 124 C78 123.34 78 122.68 78 122 C77.46890625 121.79761719 76.9378125 121.59523438 76.390625 121.38671875 C72.95867063 119.39596091 70.4885827 116.65690615 67.75 113.8125 C63.67163751 109.60146789 59.4920071 105.62771243 55.05322266 101.79711914 C51.55025235 98.73108295 48.18899472 95.51636427 44.8125 92.3125 C39.69148278 87.47257543 34.56100543 82.64528055 29.375 77.875 C24.7313222 73.60310688 20.10929858 69.30897268 15.5 65 C10.32835319 60.16600726 5.14057862 55.35042042 -0.06835938 50.55664062 C-3.04793905 47.81161581 -6.01440718 45.05343681 -8.96875 42.28125 C-9.63970703 41.6521875 -10.31066406 41.023125 -11.00195312 40.375 C-12.29900556 39.15782469 -13.59466256 37.93916003 -14.88867188 36.71875 C-18.15272027 33.65671111 -21.45431771 30.73984541 -25 28 C-23.42140174 24.15387927 -20.97344745 21.75846654 -18.02734375 18.8671875 C-17.54423233 18.38927765 -17.06112091 17.9113678 -16.56336975 17.41897583 C-15.02610959 15.89946386 -13.48230674 14.3868361 -11.9375 12.875 C-10.39002523 11.35515441 -8.84404074 9.83386581 -7.30091858 8.30960083 C-5.90429199 6.93081258 -4.50291677 5.55683935 -3.10131836 4.18310547 C-0.96740455 2.18319548 -0.96740455 2.18319548 0 0 Z " fill="#050505" transform="translate(486,257)"/>
</g>
</svg>